<svg xmlns="http://www.w3.org/2000/svg" width="32" height="32" viewBox="0 0 50 50">
  <defs>
    <linearGradient id="gradient2" x1="0%" y1="0%" x2="100%" y2="100%">
      <stop offset="0%" style="stop-color: #25ced1; stop-opacity: 1" />
      <stop offset="100%" style="stop-color: white; stop-opacity: 1" />
    </linearGradient>
  </defs>
  <path fill="url(#gradient2)" d="M35 34H13c-.3 0-.6-.2-.8-.4s-.2-.6-.1-.9l1.9-4.8L12.1 10H6V8h7c.5 0 .9.4 1 .9l2 19c0 .2 0 .3-.1.5L14.5 32H36z"/>
  <path fill="url(#gradient2)" d="m15.2 29l-.4-2L38 22.2V14H14v-2h25c.6 0 1 .4 1 1v10c0 .5-.3.9-.8 1zM36 40c-2.2 0-4-1.8-4-4s1.8-4 4-4s4 1.8 4 4s-1.8 4-4 4m0-6c-1.1 0-2 .9-2 2s.9 2 2 2s2-.9 2-2s-.9-2-2-2m-24 6c-2.2 0-4-1.8-4-4s1.8-4 4-4s4 1.8 4 4s-1.8 4-4 4m0-6c-1.1 0-2 .9-2 2s.9 2 2 2s2-.9 2-2s-.9-2-2-2"/>
</svg>