<svg xmlns:xlink="http://www.w3.org/1999/xlink" xmlns="http://www.w3.org/2000/svg" xmlns:svg="http://www.w3.org/2000/svg" width="26" height="26" viewBox="0 0 32 32" id="svg5" version="1.1">

<defs id="defs2" fill="#000" style=""/>

<g id="layer1" transform="translate(-204,-292)" fill="#000" style="">

<path d="m 232.41992,306.89453 c -0.6421,0 -1.28402,0.24106 -1.76758,0.72461 l -2.93359,2.93555 c -0.32488,-0.51292 -0.83067,-0.91277 -1.45508,-1.08008 l -6.92383,-1.85547 c -0.55182,-0.14786 -1.12242,-0.17564 -1.67578,-0.0918 -0.55336,0.0839 -1.08901,0.27929 -1.57226,0.58399 l -4.32227,2.72656 -0.34961,-0.60742 c -0.4354,-0.75414 -1.43531,-1.02134 -2.18945,-0.58594 l -3.28711,1.89649 c -0.75414,0.4354 -1.02134,1.43531 -0.58594,2.18945 l 4.89844,8.48242 c 0.4354,0.75414 1.43336,1.02329 2.1875,0.58789 l 3.28711,-1.89844 c 0.75414,-0.4354 1.02329,-1.43531 0.58789,-2.18945 l -0.0645,-0.11328 1.87304,-1.26563 6.89063,1.35547 c 0.94431,0.18564 1.78846,-0.0778 2.46094,-0.76562 2.22251,-2.27326 4.44782,-4.53621 6.70507,-6.76367 a 1.0001,1.0001 0 0 0 0.006,-0.004 c 0.96711,-0.96711 0.96711,-2.57 0,-3.53711 -0.48355,-0.48355 -1.12742,-0.72461 -1.76953,-0.72461 z m 0,1.98242 c 0.12473,0 0.24946,0.0522 0.35352,0.15625 0.20811,0.20811 0.20811,0.50088 0,0.70899 -2.26956,2.23973 -4.50139,4.51118 -6.72461,6.78515 -0.0408,0.0418 -0.58764,0.21041 -0.64453,0.19922 l -7.29883,-1.43359 a 1.0001,1.0001 0 0 0 -0.75391,0.15234 l -2.09961,1.41992 -2.48047,-4.29492 4.38672,-2.76562 c 0.49575,-0.31258 1.09797,-0.40559 1.66407,-0.25391 l 6.92382,1.85547 c 0.28427,0.0762 0.42969,0.32902 0.35352,0.61328 -0.0762,0.28425 -0.32903,0.42968 -0.61328,0.35352 l -4.34571,-1.16407 a 1,1 0 0 0 -1.2246,0.70704 1,1 0 0 0 0.70703,1.2246 l 4.3457,1.16407 c 0.97582,0.26147 1.98681,-0.10874 2.5918,-0.85157 a 1,1 0 0 0 0.26367,-0.17578 l 4.24219,-4.24414 c 0.10405,-0.10405 0.22878,-0.15625 0.35351,-0.15625 z m -22.5332,2.69727 0.48437,0.83984 a 1,1 0 0 0 0.13868,0.40039 1,1 0 0 0 0.23828,0.25196 l 3.63867,6.30273 -2.59766,1.5 -4.5,-7.79492 z" id="path453469" style="" fill="#000"/>

<path d="m 224,301.01367 a 1,1 0 0 0 -1,1 1,1 0 0 0 1,1 h 2 a 1,1 0 0 0 1,-1 1,1 0 0 0 -1,-1 z" id="path453459" style="" fill="#000"/>

<path d="m 224,297.01367 a 1,1 0 0 0 -1,1 1,1 0 0 0 1,1 h 2 a 1,1 0 0 0 1,-1 1,1 0 0 0 -1,-1 z" id="path453437" style="" fill="#000"/>

<path d="m 225,293.01367 c -3.85414,0 -7,3.14587 -7,7 0,3.85415 3.14586,7 7,7 3.85414,0 7,-3.14585 7,-7 0,-3.85413 -3.14586,-7 -7,-7 z m 0,2 c 2.77327,0 5,2.22674 5,5 0,2.77327 -2.22673,5 -5,5 -2.77327,0 -5,-2.22673 -5,-5 0,-2.77326 2.22673,-5 5,-5 z" id="rect18334" style="" fill="#000"/>

</g>

</svg>